<mxfile host="app.diagrams.net" modified="2022-12-27T18:49:17.628Z" agent="5.0 (Windows NT 10.0; Win64; x64) AppleWebKit/537.36 (KHTML, like Gecko) Chrome/108.0.0.0 Safari/537.36" version="20.7.4" etag="K3nyYaqmEbVPcEK73AJ-" type="github">
  <diagram id="_gObmWxvESoBglF8_xSR" name="Página-1">
    <mxGraphModel dx="880" dy="444" grid="1" gridSize="10" guides="1" tooltips="1" connect="1" arrows="1" fold="1" page="1" pageScale="1" pageWidth="827" pageHeight="1169" math="0" shadow="0">
      <root>
        <mxCell id="0" />
        <mxCell id="1" parent="0" />
        <mxCell id="FUI3Zm6VFqWphLP_VZD8-10" style="edgeStyle=orthogonalEdgeStyle;rounded=0;orthogonalLoop=1;jettySize=auto;html=1;exitX=1;exitY=0.5;exitDx=0;exitDy=0;exitPerimeter=0;entryX=0;entryY=0.5;entryDx=0;entryDy=0;entryPerimeter=0;" edge="1" parent="1" source="FUI3Zm6VFqWphLP_VZD8-1" target="FUI3Zm6VFqWphLP_VZD8-2">
          <mxGeometry relative="1" as="geometry" />
        </mxCell>
        <mxCell id="FUI3Zm6VFqWphLP_VZD8-1" value="Inicio" style="strokeWidth=2;html=1;shape=mxgraph.flowchart.start_1;whiteSpace=wrap;" vertex="1" parent="1">
          <mxGeometry x="51" y="240" width="100" height="60" as="geometry" />
        </mxCell>
        <mxCell id="FUI3Zm6VFqWphLP_VZD8-11" style="edgeStyle=orthogonalEdgeStyle;rounded=0;orthogonalLoop=1;jettySize=auto;html=1;exitX=0.5;exitY=1;exitDx=0;exitDy=0;exitPerimeter=0;entryX=0.5;entryY=0;entryDx=0;entryDy=0;entryPerimeter=0;" edge="1" parent="1" source="FUI3Zm6VFqWphLP_VZD8-2" target="FUI3Zm6VFqWphLP_VZD8-7">
          <mxGeometry relative="1" as="geometry" />
        </mxCell>
        <mxCell id="FUI3Zm6VFqWphLP_VZD8-2" value="OBIIE" style="strokeWidth=2;html=1;shape=mxgraph.flowchart.database;whiteSpace=wrap;spacingTop=3;" vertex="1" parent="1">
          <mxGeometry x="202" y="240" width="60" height="60" as="geometry" />
        </mxCell>
        <mxCell id="FUI3Zm6VFqWphLP_VZD8-12" style="edgeStyle=orthogonalEdgeStyle;rounded=0;orthogonalLoop=1;jettySize=auto;html=1;entryX=0;entryY=0.5;entryDx=0;entryDy=0;exitX=0.78;exitY=0.5;exitDx=0;exitDy=0;exitPerimeter=0;" edge="1" parent="1" source="FUI3Zm6VFqWphLP_VZD8-7" target="FUI3Zm6VFqWphLP_VZD8-8">
          <mxGeometry relative="1" as="geometry" />
        </mxCell>
        <mxCell id="FUI3Zm6VFqWphLP_VZD8-7" value="&lt;br&gt;&lt;br&gt;01-Pregral&lt;br&gt;02- Reporte&lt;br&gt;&amp;nbsp;de Cuentas2" style="strokeWidth=2;html=1;shape=mxgraph.flowchart.extract_or_measurement;whiteSpace=wrap;" vertex="1" parent="1">
          <mxGeometry x="171.5" y="330" width="121" height="100" as="geometry" />
        </mxCell>
        <mxCell id="FUI3Zm6VFqWphLP_VZD8-14" style="edgeStyle=orthogonalEdgeStyle;rounded=0;orthogonalLoop=1;jettySize=auto;html=1;exitX=1;exitY=0.5;exitDx=0;exitDy=0;entryX=0;entryY=0.5;entryDx=0;entryDy=0;" edge="1" parent="1" source="FUI3Zm6VFqWphLP_VZD8-8" target="FUI3Zm6VFqWphLP_VZD8-13">
          <mxGeometry relative="1" as="geometry" />
        </mxCell>
        <mxCell id="FUI3Zm6VFqWphLP_VZD8-8" value="Procesamiento de información de acuerdo a procedimiento establecido" style="rounded=1;whiteSpace=wrap;html=1;absoluteArcSize=1;arcSize=14;strokeWidth=2;fontSize=11;" vertex="1" parent="1">
          <mxGeometry x="331" y="330" width="100" height="100" as="geometry" />
        </mxCell>
        <mxCell id="FUI3Zm6VFqWphLP_VZD8-17" style="edgeStyle=orthogonalEdgeStyle;rounded=0;orthogonalLoop=1;jettySize=auto;html=1;exitX=0.5;exitY=1;exitDx=0;exitDy=0;entryX=0.5;entryY=0;entryDx=0;entryDy=0;fontSize=12;" edge="1" parent="1" source="FUI3Zm6VFqWphLP_VZD8-13" target="FUI3Zm6VFqWphLP_VZD8-15">
          <mxGeometry relative="1" as="geometry" />
        </mxCell>
        <mxCell id="FUI3Zm6VFqWphLP_VZD8-13" value="&#xa;Saldos Activos Dashboard&#xa;&#xa;Saldos Pasivos Dashboard&#xa;&#xa;Archivo Relación al Negocio" style="shape=internalStorage;whiteSpace=wrap;dx=15;dy=15;rounded=1;arcSize=8;strokeWidth=2;fontSize=9;spacingLeft=14;spacingTop=4;spacingBottom=1;" vertex="1" parent="1">
          <mxGeometry x="480" y="330" width="120" height="100" as="geometry" />
        </mxCell>
        <mxCell id="FUI3Zm6VFqWphLP_VZD8-18" style="edgeStyle=orthogonalEdgeStyle;rounded=0;orthogonalLoop=1;jettySize=auto;html=1;exitX=0.5;exitY=1;exitDx=0;exitDy=0;entryX=0.5;entryY=0;entryDx=0;entryDy=0;entryPerimeter=0;fontSize=12;" edge="1" parent="1" source="FUI3Zm6VFqWphLP_VZD8-15" target="FUI3Zm6VFqWphLP_VZD8-16">
          <mxGeometry relative="1" as="geometry" />
        </mxCell>
        <mxCell id="FUI3Zm6VFqWphLP_VZD8-15" value="Base Consulta Integral" style="shape=internalStorage;whiteSpace=wrap;html=1;dx=15;dy=15;rounded=1;arcSize=8;strokeWidth=2;" vertex="1" parent="1">
          <mxGeometry x="480" y="460" width="120" height="100" as="geometry" />
        </mxCell>
        <mxCell id="FUI3Zm6VFqWphLP_VZD8-16" value="&lt;font style=&quot;font-size: 12px;&quot;&gt;Consulta Integral&lt;/font&gt;" style="strokeWidth=2;html=1;shape=mxgraph.flowchart.document2;whiteSpace=wrap;size=0.25;fontSize=9;" vertex="1" parent="1">
          <mxGeometry x="490" y="600" width="100" height="60" as="geometry" />
        </mxCell>
      </root>
    </mxGraphModel>
  </diagram>
</mxfile>
